<svg width="232" height="20" viewBox="0 0 232 20" fill="none" xmlns="http://www.w3.org/2000/svg">
<path d="M27.7008 19.6619V1.34877H32.955V19.6619H27.7008ZM148.883 19.6619L136.257 8.78746V19.6619H131.82V1.34877H135.589L148.047 12.0523V1.34877H152.483V19.6619H148.883ZM176.34 7.25662C173.965 6.06762 171.291 5.10527 167.745 5.10527C163.511 5.10527 160.354 7.33217 160.354 10.4285C160.354 13.6004 163.568 15.8484 167.707 15.8484C171.125 15.8484 173.833 14.9604 176.507 13.3924V17.9242C174.148 19.1132 171.012 20 167.485 20C160.281 20 154.617 16.2633 154.617 10.4285C154.617 4.68912 160.391 1.00693 167.465 1.00693C170.807 1.00693 173.833 1.64849 176.34 2.68887V7.25662ZM62.1966 19.6619V1.34877H79.7598V5.27495H67.4509V9.82536H79.4828V13.7528H67.4509V19.6631H62.1966V19.6619ZM179.516 19.6619V1.34877H197.748V5.27495H184.77V8.4481H197.543V12.3743H184.77V15.7357H197.692V19.6619H179.516ZM98.0106 12.7892L105.269 19.6631H99.6627C98.4187 19.6631 97.6025 19.2668 96.9521 18.6227L92.0132 13.7515C91.9556 13.6997 91.8884 13.6598 91.8154 13.6341C91.7424 13.6084 91.6651 13.5974 91.5878 13.6017H88.2267V19.6619H82.9725V1.34877H94.354C100.257 1.34877 102.746 4.04879 102.746 7.0312C102.746 10.5053 99.6998 12.1637 98.0106 12.7892ZM93.8161 9.76839C95.8936 9.76839 96.8965 8.69333 96.8965 7.48451C96.8965 6.27569 96.0061 5.27495 93.8161 5.27495H88.2267V9.76839H93.8161ZM52.9123 12.7904L60.1711 19.6619H54.5656C53.3216 19.6619 52.5042 19.2655 51.855 18.6227L46.9161 13.7515C46.8584 13.6996 46.7909 13.6597 46.7177 13.634C46.6445 13.6082 46.5669 13.5973 46.4895 13.6017H43.1297V19.6619H37.8742V1.34877H49.2557C55.1592 1.34877 57.6484 4.04879 57.6484 7.0312C57.6484 10.5053 54.6027 12.165 52.9123 12.7904ZM48.7178 9.76839C50.7977 9.76839 51.8006 8.69333 51.8006 7.48451C51.8006 6.27569 50.909 5.27495 48.7178 5.27495H43.1297V9.76839H48.7178ZM19.475 19.6619L17.1737 15.6403H7.11161L5.01312 19.6619H0L10.0262 1.36734H14.5942L25.9572 19.6619H19.475ZM9.11612 11.8256H14.9837L11.938 6.2373L9.11612 11.8256ZM124.393 19.6619L122.146 15.6403H112.346L110.322 19.6619H105.438L115.203 1.36734H119.64L130.687 19.6619H124.393ZM114.313 11.8256H120.031L117.06 6.2373L114.313 11.8256Z" fill="#051039"/>
<path d="M219.555 0L209.118 15.3555C207.746 17.3743 205.516 19.3213 202.824 19.5281V20H214.432C217.513 20 219.762 17.9601 221.283 15.7134L232 0H219.556H219.555Z" fill="#FF0000"/>
</svg>
