<svg width="72" height="42" viewBox="0 0 72 42" fill="none" xmlns="http://www.w3.org/2000/svg">
<g clip-path="url(#clip0_169_365)">
<path d="M22.4558 19.8888C22.3982 18.3122 22.4249 16.7315 22.4414 15.1549C31.4866 15.1817 40.5319 15.1611 49.5772 15.1652C49.5792 16.7356 49.5792 18.3039 49.5772 19.8723C40.536 19.8826 31.4949 19.8516 22.4558 19.8888ZM34.7168 0H36.9755C36.994 0.769715 36.992 1.53737 36.9879 2.30708C37.7428 2.30502 38.4999 2.30914 39.2548 2.30295C39.261 3.05822 39.261 3.81349 39.2384 4.56876C38.4896 4.56876 37.7387 4.57289 36.9899 4.56876C36.9899 5.31165 36.9879 6.0566 36.994 6.80155C36.2493 6.84902 35.5047 6.8387 34.76 6.83251C34.7559 6.07724 34.7559 5.3199 34.7517 4.56257C33.9947 4.57289 33.2397 4.56876 32.4848 4.57083C32.4724 3.81762 32.4745 3.06235 32.4724 2.30914C33.2336 2.30708 33.9947 2.30502 34.7538 2.30914C34.7373 1.53943 34.8052 0.765587 34.7168 0ZM53.4956 10.2347C53.4956 10.753 53.3938 11.2662 53.1961 11.745C52.9984 12.2238 52.7086 12.6589 52.3433 13.0254C51.9779 13.3919 51.5442 13.6826 51.0669 13.8809C50.5896 14.0792 50.078 14.1813 49.5613 14.1813C48.5179 14.1813 47.5172 13.7655 46.7794 13.0254C46.0415 12.2853 45.627 11.2814 45.627 10.2347C45.627 9.18803 46.0415 8.18419 46.7794 7.44407C47.5172 6.70394 48.5179 6.28814 49.5613 6.28814C50.6048 6.28814 51.6055 6.70394 52.3433 7.44407C53.0811 8.18419 53.4956 9.18803 53.4956 10.2347ZM44.4545 10.2347C44.4545 10.753 44.3527 11.2662 44.155 11.745C43.9573 12.2238 43.6675 12.6589 43.3021 13.0254C42.9368 13.3919 42.5031 13.6826 42.0258 13.8809C41.5484 14.0792 41.0368 14.1813 40.5202 14.1813C39.4767 14.1813 38.476 13.7655 37.7382 13.0254C37.0004 12.2853 36.5859 11.2814 36.5859 10.2347C36.5859 9.18803 37.0004 8.18419 37.7382 7.44407C38.476 6.70394 39.4767 6.28814 40.5202 6.28814C41.5636 6.28814 42.5643 6.70394 43.3021 7.44407C44.04 8.18419 44.4545 9.18803 44.4545 10.2347ZM35.4133 10.2348C35.4133 11.2815 34.9988 12.2853 34.261 13.0255C33.5232 13.7656 32.5225 14.1814 31.479 14.1814C30.4356 14.1814 29.4349 13.7656 28.6971 13.0255C27.9592 12.2853 27.5447 11.2815 27.5447 10.2348C27.5447 9.1881 27.9592 8.18427 28.6971 7.44414C29.4349 6.70401 30.4356 6.28821 31.479 6.28821C32.5225 6.28821 33.5232 6.70401 34.261 7.44414C34.9988 8.18427 35.4133 9.1881 35.4133 10.2348ZM26.3722 10.2348C26.3722 11.2815 25.9577 12.2853 25.2198 13.0255C24.482 13.7656 23.4813 14.1814 22.4379 14.1814C21.3944 14.1814 20.3937 13.7656 19.6559 13.0255C18.9181 12.2853 18.5036 11.2815 18.5036 10.2348C18.5036 9.1881 18.9181 8.18427 19.6559 7.44414C20.3937 6.70401 21.3944 6.28821 22.4379 6.28821C23.4813 6.28821 24.482 6.70401 25.2198 7.44414C25.9577 8.18427 26.3722 9.1881 26.3722 10.2348Z" fill="#00A1E4"/>
<path d="M42.5067 23.8859C46.2672 23.8735 50.0277 23.9107 53.7881 23.8673C54.9751 27.1051 56.0139 30.3986 57.1351 33.6611C57.2277 33.5146 57.3593 33.3908 57.4066 33.2195C58.4784 30.1055 59.5749 26.9999 60.6569 23.888C64.4379 23.8838 68.219 23.8818 72 23.89V41.9794C69.6857 42.0083 67.3694 41.9897 65.0551 41.9897C65.051 37.8254 65.0757 33.659 65.0427 29.4927C64.7198 29.6742 64.6869 30.0849 64.549 30.3924C63.2057 34.2616 61.8274 38.1184 60.4841 41.9876C58.3077 41.9876 56.1291 42.0165 53.9547 41.9732C52.5909 38.0173 51.1797 34.08 49.8034 30.1303C49.7541 29.9095 49.6306 29.7485 49.4373 29.6454C49.4311 33.7601 49.4393 37.877 49.4352 41.9938C47.125 41.9938 44.8149 41.9938 42.5047 41.9917C42.5088 35.9578 42.5026 29.9219 42.5067 23.8859ZM0 23.8859C2.28343 23.8859 4.56686 23.8838 6.85234 23.888C6.85646 26.0795 6.84823 28.2731 6.8544 30.4667C9.11931 28.2917 11.3328 26.065 13.5977 23.89C15.8997 23.8838 18.2016 23.8838 20.5035 23.89C17.8498 26.5954 15.1241 29.2306 12.491 31.9545C15.8091 35.1819 19.0142 38.5291 22.3611 41.7214C22.3899 35.7783 22.3653 29.8331 22.3735 23.888C24.7083 23.8838 27.0432 23.8838 29.3781 23.888C29.3781 28.3969 29.3739 32.9058 29.3781 37.4147C33.1077 37.4044 36.8352 37.4271 40.5627 37.4023C40.6142 38.9315 40.571 40.4626 40.5874 41.9917C31.5237 41.9917 22.4578 42 13.3941 41.9876C11.2505 39.8105 9.07817 37.6624 6.92434 35.4956C6.89349 37.6644 6.92846 39.8312 6.90583 42C4.60389 41.9835 2.30194 42.0021 0 41.9897L0 23.8859Z" fill="#00A1E4"/>
</g>
<defs>
<clipPath id="clip0_169_365">
<rect width="72" height="42" fill="white"/>
</clipPath>
</defs>
</svg>
